<?xml version="1.0" encoding="utf-8"?><!DOCTYPE svg PUBLIC "-//W3C//DTD SVG 1.1//EN" "http://www.w3.org/Graphics/SVG/1.1/DTD/svg11.dtd"><svg width="30" height="60" viewBox="0 0 30 60" xmlns="http://www.w3.org/2000/svg" xmlns:xlink="http://www.w3.org/1999/xlink"><view id="01" viewBox="0 0 30 30"/><svg width="30" height="30" viewBox="-10 -10 30 30" id="01-"><path fill="#FFB502" stroke="#FFF" stroke-width=".7" stroke-miterlimit="10" d="M5 .5C7.475.5 9.5 2.524 9.5 5c0 2.475-2.025 4.5-4.5 4.5A4.513 4.513 0 0 1 .5 5C.5 2.524 2.524.5 5 .5"/><path fill="#FFF" d="M7.409 3.156h.032-.877L5 6.285 3.436 3.156H2.56l.25.626 1.877 3.755h.626L7.19 3.782h.033z"/></svg><view id="02" viewBox="0 30 30 30"/><svg width="30" height="30" viewBox="-10 -10 30 30" id="02-" y="30"><path fill="#00A4FF" stroke="#FFF" stroke-width=".7" stroke-miterlimit="10" d="M5 .5C7.475.5 9.5 2.525 9.5 5c0 2.474-2.026 4.5-4.5 4.5S.5 7.475.5 5 2.525.5 5 .5"/><path fill="#FFF" d="M7.49 3.094h.032-.905L5 6.328 3.383 3.094h-.905l.258.647 1.941 3.88h.646l1.94-3.88h.033z"/></svg></svg>