<?xml version="1.0" encoding="utf-8"?><!DOCTYPE svg PUBLIC "-//W3C//DTD SVG 1.1//EN" "http://www.w3.org/Graphics/SVG/1.1/DTD/svg11.dtd"><svg width="30" height="300" viewBox="0 0 30 300" xmlns="http://www.w3.org/2000/svg" xmlns:xlink="http://www.w3.org/1999/xlink"><view id="01" viewBox="0 0 30 30"/><svg width="30" height="30" viewBox="-10 -10 30 30" id="01-"><path fill="#FFB502" stroke="#FFF" stroke-width=".7" stroke-miterlimit="10" d="M5 .5C7.475.5 9.5 2.524 9.5 5c0 2.475-2.025 4.5-4.5 4.5A4.513 4.513 0 0 1 .5 5C.5 2.524 2.524.5 5 .5"/><path fill="#FFF" d="M7.409 3.156h.032-.877L5 6.285 3.436 3.156H2.56l.25.626 1.877 3.755h.626L7.19 3.782h.033z"/></svg><view id="02" viewBox="0 30 30 30"/><svg width="30" height="30" viewBox="-10 -10 30 30" id="02-" y="30"><path fill="#00A4FF" stroke="#FFF" stroke-width=".7" stroke-miterlimit="10" d="M5 .5C7.475.5 9.5 2.525 9.5 5c0 2.474-2.026 4.5-4.5 4.5S.5 7.475.5 5 2.525.5 5 .5"/><path fill="#FFF" d="M7.49 3.094h.032-.905L5 6.328 3.383 3.094h-.905l.258.647 1.941 3.88h.646l1.94-3.88h.033z"/></svg><view id="03" viewBox="0 60 30 30"/><svg width="30" height="30" viewBox="-10 -10 30 30" id="03-" y="60"><path fill="#ED3714" stroke="#FFF" stroke-width=".7" stroke-miterlimit="10" d="M5 .5C7.475.5 9.5 2.525 9.5 5c0 2.476-2.025 4.5-4.5 4.5S.5 7.476.5 5C.5 2.525 2.525.5 5 .5"/><path fill="#FFF" d="M7.919 4.058H5.994L4.967 1.844l-.993 2.214H2.081l1.411 1.571-.449 2.182 4.876-3.753zm-3.496.609L5 3.512l.545 1.155h.417l-1.893 1.54.161-.642-.641-.898h.834zm.738 2.213l2.02.93-.513-2.213L5.161 6.88z"/></svg><view id="04" viewBox="0 90 30 30"/><svg width="30" height="30" viewBox="-10 -10 30 30" id="04-" y="90"><path fill="#FD5093" stroke="#FFF" stroke-width=".7" stroke-miterlimit="10" d="M5 .5C7.475.5 9.5 2.525 9.5 5S7.475 9.5 5 9.5.5 7.475.5 5 2.525.5 5 .5"/><path fill="#FFF" d="M7.47 4.125V2.561c-1.473.153-2.116 3.682-2.116 3.682h-.645S4.003 2.714 2.53 2.561v1.565s.736 1.687 1.534 2.117v.584h-.613l-.307.306v.307h.675l.307-.307h1.841l.307.307h.613v-.307l-.306-.307h-.584v-.583c.768-.399 1.473-2.118 1.473-2.118z"/></svg><view id="05" viewBox="0 120 30 30"/><svg width="30" height="30" viewBox="-10 -10 30 30" id="05-" y="120"><path fill="#77C2F9" d="M5 0a5 5 0 1 1 0 10A5 5 0 0 1 5 0z"/><path fill="#FFF" d="M7.363 2.345H5.898a.293.293 0 1 0 0 .586h.763l-.82.82a2.177 2.177 0 1 0 .415.416l.814-.815v.75a.293.293 0 1 0 .586 0V2.638a.295.295 0 0 0-.293-.293M4.512 6.987a1.512 1.512 0 1 1 0-3.025 1.512 1.512 0 0 1 0 3.025"/></svg><view id="06" viewBox="0 150 30 30"/><svg width="30" height="30" viewBox="-10 -10 30 30" id="06-" y="150"><path fill="#F880AB" d="M5 0a5 5 0 1 1 0 10A5 5 0 0 1 5 0z"/><path fill="#FFF" d="M5.507 2.322a2.178 2.178 0 0 0-2.178 2.177c0 .481.158.924.423 1.285l-.309.309-.572-.571s-.229-.229-.457 0c-.229.228 0 .457 0 .457l.572.571-.572.572.457.457.572-.572.571.572s.229.228.457 0c.229-.229 0-.457 0-.457L3.9 6.55l.307-.307c.363.271.813.434 1.3.434a2.177 2.177 0 0 0 0-4.355m-.023 3.693a1.507 1.507 0 1 1 0-3.013 1.507 1.507 0 0 1 0 3.013"/></svg><view id="07" viewBox="0 180 30 30"/><svg width="30" height="30" viewBox="-10 -10 30 30" id="07-" y="180"><path fill="#FDB713" d="M7.143 1.438a6.042 6.042 0 0 1-.866.682C6.905 1.271 6.905.007 5.013 0 3.094.007 3.097 1.283 3.741 2.131a5.913 5.913 0 0 1-.884-.693C.714 1.438 0 3.578 0 4.292 0 6.433 1.428 7.86 1.428 7.86v.714L2.143 10h5.715l.714-1.427v-.714S10 6.432 10 4.291c0-.713-.715-2.853-2.857-2.853"/><path fill="#FDE253" d="M2.142 9.28h5.715v-.715H2.142v.715m2.864-6.822c.675 0 1.895-1.748 0-1.748-1.92 0-.675 1.748 0 1.748m2.137-.313c-.715 1.069-2.137 1.084-2.137 1.084s-1.435-.013-2.149-1.084C1.165 2.642.714 3.571.714 4.643a2.838 2.838 0 0 0 1.428 2.499v.715h5.714v-.715s1.428-.714 1.428-2.499c.001-1.072-.45-2.001-2.141-2.498"/><linearGradient id="ga" gradientUnits="userSpaceOnUse" x1="-3.44" y1="792.106" x2="-3.44" y2="795.941" gradientTransform="translate(8.44 -788.746)"><stop offset="0" stop-color="#e82208" stop-opacity=".9"/><stop offset="1" stop-color="#cc1108" stop-opacity=".9"/></linearGradient><path fill="url(#ga)" d="M1.434 4.631c.023 1.204 1.786 2.51 1.786 2.51h1.071V3.573c-.715 0-1.451-.513-1.451-.513s-1.429.367-1.406 1.571M7.148 3.06s-.357.513-1.428.513v3.568h1.071s1.751-1.294 1.774-2.498C8.588 3.438 7.148 3.06 7.148 3.06"/><linearGradient id="gb" gradientUnits="userSpaceOnUse" x1="-3.44" y1="791.805" x2="-3.44" y2="795.886" gradientTransform="translate(8.44 -788.746)"><stop offset="0" stop-color="#e82208" stop-opacity=".8"/><stop offset="1" stop-color="#cc1108"/></linearGradient><path fill="url(#gb)" stroke="#C62B1A" stroke-width=".75" stroke-miterlimit="10" d="M1.434 4.631c.023 1.204 1.786 2.51 1.786 2.51h1.071V3.573c-.715 0-1.451-.513-1.451-.513s-1.429.367-1.406 1.571zM7.148 3.06s-.357.513-1.428.513v3.568h1.071s1.751-1.294 1.774-2.498C8.588 3.438 7.148 3.06 7.148 3.06z"/></svg><view id="08" viewBox="0 210 30 30"/><svg width="30" height="30" viewBox="-10 -10 30 30" id="08-" y="210"><path fill="#969696" d="M7.143 1.437c-.236.234-.55.472-.866.683.628-.848.628-2.115-1.264-2.12C3.095.008 3.098 1.284 3.74 2.131a6.017 6.017 0 0 1-.884-.693C.714 1.437 0 3.578 0 4.291 0 6.433 1.429 7.86 1.429 7.86v.715L2.143 10h5.715l.714-1.425v-.716S10 6.432 10 4.29c0-.713-.715-2.853-2.857-2.853"/><path fill="#FEFEFE" d="M2.143 9.281h5.715v-.715H2.143v.715m2.863-6.824c.675 0 1.893-1.747 0-1.747-1.919 0-.675 1.747 0 1.747m2.137-.314c-.714 1.07-2.137 1.084-2.137 1.084s-1.435-.012-2.149-1.084C1.165 2.641.714 3.57.714 4.643a2.84 2.84 0 0 0 1.428 2.5v.715h5.715v-.715s1.427-.715 1.427-2.5c.001-1.073-.45-2.002-2.141-2.5"/><linearGradient id="ha" gradientUnits="userSpaceOnUse" x1="-3.4" y1="-3.123" x2="-3.4" y2=".632" gradientTransform="matrix(1 0 0 -1 8.4 4.1)"><stop offset="0" stop-color="#959595"/><stop offset="1" stop-color="#b8b8b8"/></linearGradient><linearGradient id="hb" gradientUnits="userSpaceOnUse" x1="-7.342" y1="-.985" x2=".541" y2="-.985" gradientTransform="matrix(1 0 0 -1 8.4 4.1)"><stop offset="0" stop-color="#acacac"/><stop offset="1" stop-color="#bcbcbc"/></linearGradient><path fill="url(#ha)" stroke="url(#hb)" stroke-width=".75" stroke-miterlimit="10" d="M1.434 4.631c.022 1.204 1.786 2.51 1.786 2.51h1.071V3.572c-.714 0-1.451-.513-1.451-.513s-1.428.368-1.406 1.572m5.713-1.572s-.357.512-1.427.512V7.14h1.07s1.752-1.294 1.775-2.498c.023-1.204-1.418-1.583-1.418-1.583"/><path fill="none" stroke="#8E8E8E" stroke-width=".75" stroke-miterlimit="10" d="M1.434 4.631c.022 1.204 1.786 2.51 1.786 2.51h1.071V3.572c-.714 0-1.451-.513-1.451-.513s-1.428.368-1.406 1.572zm5.713-1.572s-.357.512-1.427.512V7.14h1.07s1.752-1.294 1.775-2.498c.023-1.204-1.418-1.583-1.418-1.583z"/></svg><view id="09" viewBox="0 240 30 30"/><svg width="30" height="30" viewBox="-10 -10 30 30" id="09-" y="240"><path fill="#929292" d="M9.771 4.195a1.242 1.242 0 0 0-.959-.583l-2.566-.005c.207-.5.325-1.045.325-1.621a6.56 6.56 0 0 0-.032-.496S6.455.22 5.36.22c-.636 0-1.152.519-1.152 1.159 0 .09-.003.137-.003.13a2.457 2.457 0 0 1-2.238 2.442H.395l-.002.001H.372l.011.002a.343.343 0 0 0-.238.105.336.336 0 0 0-.102.239v5.134c0 .097.045.183.113.245a.31.31 0 0 0 .216.102h.001l.008.001h7.698c-.107 0 .286-.03.53-.183a1.21 1.21 0 0 0 .547-.892c0-.005.005.014.006.009l.794-3.82a1.256 1.256 0 0 0-.185-.699M1.76 9.096H.734V4.638H1.76v4.458m6.784-.594c.01-.033.007-.029-.01.056l.01-.056c-.021.081-.116.426-.246.509-.157.098-.256.083-.256.083h-5.6V4.521c1.073-.317 1.96-1.195 2.291-2.17v.001c.041-.116.072-.229.079-.32.035-.392.062-.719.062-.719s.03-.444.467-.444c.249 0 .458.176.499.444.017.03.037.175.035.65-.028.509-.11.884-.155 1.025a3.13 3.13 0 0 1-.275.668s-.087.114-.087.294c0 .19.148.343.33.343l3.122.019a.482.482 0 0 1 .417.221.471.471 0 0 1 .063.293l-.746 3.676"/></svg><view id="10" viewBox="0 270 30 30"/><svg width="30" height="30" viewBox="-10 -10 30 30" id="10-" y="270"><path fill="#E04023" d="M9.769 4.196a1.246 1.246 0 0 0-.96-.584l-2.564-.004c.206-.5.323-1.046.323-1.621a6.609 6.609 0 0 0-.029-.497S6.455.22 5.36.22c-.637 0-1.153.519-1.153 1.159 0 .09-.002.137-.002.131a2.457 2.457 0 0 1-2.238 2.441H.395l-.002.001H.371l.012.001a.342.342 0 0 0-.237.106.336.336 0 0 0-.103.24v5.132c0 .098.044.184.113.246a.31.31 0 0 0 .216.101h.001l.009.001H8.08c-.107 0 .287-.03.53-.184.321-.205.507-.538.546-.89 0-.006.005.013.006.007l.793-3.818a1.232 1.232 0 0 0-.186-.698M1.761 9.095H.735V4.637H1.76v4.458m6.785-.593c.009-.033.006-.027-.011.056l.011-.056c-.021.082-.116.427-.247.51-.157.1-.256.083-.256.083H2.445V4.521c1.073-.317 1.958-1.194 2.29-2.17l.002.001c.041-.116.072-.229.08-.32.034-.392.06-.719.06-.719s.031-.444.468-.444c.248 0 .458.178.498.444.018.03.037.176.034.65-.027.51-.108.884-.156 1.025a3.013 3.013 0 0 1-.273.669s-.087.114-.087.293c0 .19.149.344.331.344l3.12.018a.473.473 0 0 1 .415.221c.055.091.07.194.063.293l-.747 3.676"/><path fill="#FFD7A5" d="M.736 9.083h1.022V4.639H.736v4.444m7.776-.534c.018-.084.02-.09.012-.057l-.012.057m.692-4.015a.478.478 0 0 0-.414-.22l-3.112-.018a.337.337 0 0 1-.33-.341.52.52 0 0 1 .086-.293c.118-.226.207-.416.273-.667.046-.14.127-.514.156-1.021.005-.474-.016-.62-.033-.651A.503.503 0 0 0 5.333.88c-.436 0-.466.443-.466.443s-.027.327-.062.718c-.007.09-.038.204-.079.319h-.001c-.331.973-1.215 1.848-2.284 2.164v4.56h5.581s.099.017.255-.082c.129-.082.224-.426.247-.507l.742-3.667a.48.48 0 0 0-.062-.294"/><path fill="#F48700" d="M.736 4.639h1.022v4.445H.736V4.639z"/></svg></svg>