<?xml version="1.0" encoding="UTF-8" standalone="no"?>
<svg width="50px" height="50px" viewBox="0 0 50 50" version="1.1" xmlns="http://www.w3.org/2000/svg" xmlns:xlink="http://www.w3.org/1999/xlink">
    <!-- Generator: Sketch 39.1 (31720) - http://www.bohemiancoding.com/sketch -->
    <title>alarm_clock_off@3x</title>
    <desc>Created with Sketch.</desc>
    <defs></defs>
    <g id="-Component-Usage" stroke="none" stroke-width="1" fill="none" fill-rule="evenodd">
        <g id="Components" transform="translate(-3100.000000, -439.000000)" fill="#CBD2DC">
            <g id="System-Icons" transform="translate(1437.000000, 129.000000)">
                <g id="Tab-Bar-Icons" transform="translate(50.000000, 303.000000)">
                    <g id="alarm_clock_off" transform="translate(1590.000000, 0.000000)">
                        <path d="M33,7 C27.477,7 23,11.477 23,17 C23,18.973 23.579,20.806 24.565,22.356 L39.921,9.792 C38.124,8.066 35.688,7 33,7 Z M25,17 C25,12.589 28.589,9 33,9 C34.286,9 35.531,9.306 36.65,9.884 L25.302,19.169 C25.103,18.466 25,17.737 25,17 Z M62.9996,7.0005 C60.3116,7.0005 57.8766,8.0665 56.0796,9.7925 L71.4346,22.3565 C72.4206,20.8065 72.9996,18.9725 72.9996,17.0005 C72.9996,11.4775 68.5226,7.0005 62.9996,7.0005 Z M70.6976,19.1685 L59.3496,9.8845 C60.4686,9.3065 61.7146,9.0005 62.9996,9.0005 C67.4116,9.0005 70.9996,12.5885 70.9996,17.0005 C70.9996,17.7365 70.8976,18.4655 70.6976,19.1685 Z M70,34 C70,21.85 60.15,12 48,12 C35.85,12 26,21.85 26,34 C26,40.081 28.467,45.585 32.455,49.567 L28,55.842 L29.631,57 L33.945,50.923 C37.756,54.093 42.655,56 48,56 C53.345,56 58.244,54.093 62.055,50.923 L66.369,57 L68,55.842 L63.545,49.567 C67.533,45.585 70,40.081 70,34 Z M28,34 C28,22.954 36.954,14 48,14 C59.046,14 68,22.954 68,34 C68,45.046 59.046,54 48,54 C36.954,54 28,45.046 28,34 Z M48,36 L38,36 L38,38 L50,38 L50,20 L48,20 L48,36 Z"></path>
                    </g>
                </g>
            </g>
        </g>
    </g>
</svg>