<?xml version="1.0" encoding="UTF-8" standalone="no"?>
<svg width="50px" height="48px" viewBox="0 0 50 48" version="1.1" xmlns="http://www.w3.org/2000/svg" xmlns:xlink="http://www.w3.org/1999/xlink">
    <!-- Generator: Sketch 39.1 (31720) - http://www.bohemiancoding.com/sketch -->
    <title>bookmarks@3x</title>
    <desc>Created with Sketch.</desc>
    <defs></defs>
    <g id="-Component-Usage" stroke="none" stroke-width="1" fill="none" fill-rule="evenodd">
        <g id="Components" transform="translate(-2649.000000, -258.000000)" fill="#0076FF">
            <g id="System-Icons" transform="translate(1437.000000, 129.000000)">
                <g id="Navigation-/-Tool-Bar-Icons" transform="translate(50.000000, 124.000000)">
                    <g id="bookmarks" transform="translate(1159.000000, 0.000000)">
                        <path d="M40,5 C33.976,5 30.391,8.657 28.866,10.685 C28.648,10.975 28.324,11.121 28,11.121 C27.676,11.121 27.352,10.975 27.134,10.685 C25.609,8.657 22.024,5 16,5 C6,5 3,12 3,12 L3,49.201 C3,50.238 3.842,50.936 4.74,50.936 C5.119,50.936 5.508,50.811 5.848,50.535 C8.742,48.187 13.371,46 18,46 C22.667,46 25.556,49.714 26.963,52.38 C27.181,52.793 27.59,53 28,53 C28.41,53 28.819,52.793 29.037,52.38 C30.444,49.714 33.333,46 38,46 C42.629,46 47.258,48.187 50.152,50.535 C50.492,50.811 50.881,50.936 51.26,50.936 C52.158,50.936 53,50.238 53,49.201 L53,12 C53,12 50,5 40,5 Z M18,44 C12.878,44 8.012,46.348 5,48.657 L5,12.477 C5.694,11.24 8.613,7 16,7 C21.099,7 24.163,10.062 25.535,11.887 C25.832,12.282 26.455,13.575 27,14.762 L27,48.994 C24.542,45.751 21.423,44 18,44 Z M51,48.657 C47.988,46.348 43.122,44 38,44 C34.577,44 31.458,45.751 29,48.993 L29,14.762 C29.545,13.575 30.168,12.282 30.465,11.887 C31.837,10.062 34.901,7 40,7 C47.404,7 50.319,11.259 51,12.474 L51,48.657 Z"></path>
                    </g>
                </g>
            </g>
        </g>
    </g>
</svg>