<?xml version="1.0" encoding="UTF-8" standalone="no"?>
<svg width="13px" height="14px" viewBox="0 0 13 14" version="1.1" xmlns="http://www.w3.org/2000/svg" xmlns:xlink="http://www.w3.org/1999/xlink">
    <!-- Generator: Sketch 39.1 (31720) - http://www.bohemiancoding.com/sketch -->
    <title>Search Icon@3x</title>
    <desc>Created with Sketch.</desc>
    <defs></defs>
    <g id="Symbols" stroke="none" stroke-width="1" fill="none" fill-rule="evenodd">
        <g id="Bars/Navigation-Bar/Search---Grey-Active" transform="translate(-16.000000, -35.000000)" fill="#8E8E93">
            <path d="M24.0034141,44.4977995 C23.1671694,45.1270411 22.1271393,45.5 21,45.5 C18.2385763,45.5 16,43.2614237 16,40.5 C16,37.7385763 18.2385763,35.5 21,35.5 C23.7614237,35.5 26,37.7385763 26,40.5 C26,41.6274685 25.6268232,42.6677768 24.9972482,43.5041466 C25.0773657,43.5405938 25.1522731,43.5916129 25.2177516,43.6570914 L28.649991,47.0893308 C28.9448449,47.3841847 28.9484764,47.858606 28.6535412,48.1535412 C28.360648,48.4464344 27.8812716,48.4419317 27.5893308,48.149991 L24.1570914,44.7177516 C24.09137,44.6520301 24.0401171,44.5773874 24.0034141,44.4977995 Z M21,44.5 C23.209139,44.5 25,42.709139 25,40.5 C25,38.290861 23.209139,36.5 21,36.5 C18.790861,36.5 17,38.290861 17,40.5 C17,42.709139 18.790861,44.5 21,44.5 Z" id="Search-Icon"></path>
        </g>
    </g>
</svg>