<?xml version="1.0" encoding="UTF-8" standalone="no"?>
<svg width="50px" height="50px" viewBox="0 0 50 50" version="1.1" xmlns="http://www.w3.org/2000/svg" xmlns:xlink="http://www.w3.org/1999/xlink">
    <!-- Generator: Sketch 39.1 (31720) - http://www.bohemiancoding.com/sketch -->
    <title>world_off@3x</title>
    <desc>Created with Sketch.</desc>
    <defs></defs>
    <g id="-Component-Usage" stroke="none" stroke-width="1" fill="none" fill-rule="evenodd">
        <g id="Components" transform="translate(-2994.000000, -439.000000)" fill="#CBD2DC">
            <g id="System-Icons" transform="translate(1437.000000, 129.000000)">
                <g id="Tab-Bar-Icons" transform="translate(50.000000, 303.000000)">
                    <g id="world_off" transform="translate(1484.000000, 0.000000)">
                        <path d="M48,7 C34.215,7 23,18.215 23,32 C23,45.785 34.215,57 48,57 C61.785,57 73,45.785 73,32 C73,18.215 61.785,7 48,7 Z M60.98,31 C60.898,26.808 60.305,22.915 59.311,19.533 C61.614,18.892 63.685,18.053 65.444,17.035 C68.699,20.824 70.746,25.679 70.975,31 L60.98,31 Z M59.311,44.467 C60.305,41.085 60.898,37.192 60.98,33 L70.975,33 C70.746,38.321 68.699,43.176 65.444,46.965 C63.685,45.947 61.614,45.108 59.311,44.467 Z M58.69,46.382 C60.691,46.931 62.499,47.63 64.036,48.465 C61.29,51.141 57.88,53.136 54.078,54.179 C55.933,52.331 57.511,49.653 58.69,46.382 Z M37.31,46.382 C38.49,49.653 40.067,52.331 41.922,54.179 C38.12,53.136 34.71,51.141 31.964,48.465 C33.501,47.63 35.309,46.931 37.31,46.382 Z M35.02,33 C35.102,37.192 35.695,41.085 36.689,44.467 C34.386,45.108 32.315,45.947 30.556,46.965 C27.301,43.176 25.254,38.321 25.025,33 L35.02,33 Z M36.689,19.533 C35.695,22.915 35.102,26.808 35.02,31 L25.025,31 C25.254,25.679 27.301,20.824 30.556,17.035 C32.315,18.053 34.386,18.892 36.689,19.533 Z M37.31,17.618 C35.309,17.069 33.501,16.37 31.964,15.535 C34.71,12.859 38.12,10.864 41.922,9.821 C40.067,11.669 38.49,14.347 37.31,17.618 Z M54.078,9.821 C57.88,10.864 61.29,12.859 64.036,15.535 C62.499,16.37 60.691,17.069 58.69,17.618 C57.511,14.347 55.933,11.669 54.078,9.821 Z M49,18.972 L49,9.104 C52.091,9.718 54.857,13.141 56.692,18.103 C54.285,18.613 51.682,18.911 49,18.972 Z M49,31 L49,20.972 C51.929,20.911 54.741,20.587 57.333,20.023 C58.304,23.266 58.901,27.02 58.987,31 L49,31 Z M49,43.028 L49,33 L58.987,33 C58.901,36.98 58.304,40.734 57.333,43.977 C54.741,43.413 51.929,43.089 49,43.028 Z M49,45.028 C51.682,45.089 54.285,45.387 56.692,45.897 C54.857,50.859 52.091,54.282 49,54.896 L49,45.028 Z M47,45.028 L47,54.896 C43.909,54.282 41.143,50.859 39.308,45.897 C41.715,45.387 44.318,45.089 47,45.028 Z M47,33 L47,43.028 C44.071,43.089 41.259,43.413 38.667,43.977 C37.696,40.734 37.099,36.98 37.013,33 L47,33 Z M47,20.972 L47,31 L37.013,31 C37.099,27.02 37.696,23.266 38.667,20.023 C41.259,20.587 44.071,20.911 47,20.972 Z M47,18.972 C44.318,18.911 41.715,18.613 39.308,18.103 C41.143,13.141 43.909,9.718 47,9.104 L47,18.972 Z"></path>
                    </g>
                </g>
            </g>
        </g>
    </g>
</svg>