<?xml version="1.0" encoding="UTF-8" standalone="no"?>
<svg width="42px" height="36px" viewBox="0 0 42 36" version="1.1" xmlns="http://www.w3.org/2000/svg" xmlns:xlink="http://www.w3.org/1999/xlink">
    <!-- Generator: Sketch 39.1 (31720) - http://www.bohemiancoding.com/sketch -->
    <title>organize@3x</title>
    <desc>Created with Sketch.</desc>
    <defs></defs>
    <g id="-Component-Usage" stroke="none" stroke-width="1" fill="none" fill-rule="evenodd">
        <g id="Components" transform="translate(-2905.000000, -263.000000)" fill="#0076FF">
            <g id="System-Icons" transform="translate(1437.000000, 129.000000)">
                <g id="Navigation-/-Tool-Bar-Icons" transform="translate(50.000000, 124.000000)">
                    <g id="organize" transform="translate(1411.000000, 0.000000)">
                        <path d="M45,14 L24.059,14 L22.154,11.509 C21.427,10.558 20.298,10 19.1,10 L11,10 C8.8,10 7,11.8 7,14 L7,42 C7,44.2 8.8,46 11,46 L45,46 C47.2,46 49,44.2 49,42 L49,18 C49,15.8 47.2,14 45,14 Z M9,14 C9,12.897 9.897,12 11,12 L19.1,12 C19.671,12 20.219,12.271 20.565,12.724 L22.47,15.215 L23.07,16 L24.059,16 L45,16 C46.103,16 47,16.897 47,18 L47,20.559 C46.409,20.213 45.731,20 45,20 L11,20 C10.269,20 9.591,20.213 9,20.559 L9,14 Z M47,42 C47,43.103 46.103,44 45,44 L11,44 C9.897,44 9,43.103 9,42 L9,24 C9,22.897 9.897,22 11,22 L45,22 C46.103,22 47,22.897 47,24 L47,42 Z"></path>
                    </g>
                </g>
            </g>
        </g>
    </g>
</svg>