<?xml version="1.0" encoding="UTF-8" standalone="no"?>
<svg width="38px" height="48px" viewBox="0 0 38 48" version="1.1" xmlns="http://www.w3.org/2000/svg" xmlns:xlink="http://www.w3.org/1999/xlink">
    <!-- Generator: Sketch 39.1 (31720) - http://www.bohemiancoding.com/sketch -->
    <title>downloads_off@3x</title>
    <desc>Created with Sketch.</desc>
    <defs></defs>
    <g id="-Component-Usage" stroke="none" stroke-width="1" fill="none" fill-rule="evenodd">
        <g id="Components" transform="translate(-1940.000000, -437.000000)" fill="#CBD2DC">
            <g id="System-Icons" transform="translate(1437.000000, 129.000000)">
                <g id="Tab-Bar-Icons" transform="translate(50.000000, 303.000000)">
                    <g id="downloads_off" transform="translate(424.000000, 0.000000)">
                        <path d="M46.9997,5 L46.9997,35.79 L40.1247,28.999 L38.9997,30.111 L46.8747,37.889 L47.9997,38.999 L49.1247,37.889 L56.9997,30.111 L55.8747,28.999 L48.9997,35.79 L48.9997,5 L46.9997,5 Z M53,14.9999 L53,16.9999 L65,16.9999 L65,50.9999 L30.999,50.9999 L30.999,16.9999 L43,16.9999 L43,14.9999 L29,14.9999 L29,52.9999 L66.999,52.9999 L66.999,14.9999 L53,14.9999 Z"></path>
                    </g>
                </g>
            </g>
        </g>
    </g>
</svg>