<?xml version="1.0" encoding="UTF-8" standalone="no"?>
<svg width="38px" height="53px" viewBox="0 0 38 53" version="1.1" xmlns="http://www.w3.org/2000/svg" xmlns:xlink="http://www.w3.org/1999/xlink">
    <!-- Generator: Sketch 39.1 (31720) - http://www.bohemiancoding.com/sketch -->
    <title>action@3x</title>
    <desc>Created with Sketch.</desc>
    <defs></defs>
    <g id="-Component-Usage" stroke="none" stroke-width="1" fill="none" fill-rule="evenodd">
        <g id="Components" transform="translate(-2487.000000, -253.000000)" fill="#0076FF">
            <g id="System-Icons" transform="translate(1437.000000, 129.000000)">
                <g id="Navigation-/-Tool-Bar-Icons" transform="translate(50.000000, 124.000000)">
                    <g id="action" transform="translate(991.000000, 0.000000)">
                        <path d="M27.9996,-2.84217094e-14 L26.8746,1.112 L18.9996,8.889 L20.1246,10 L26.9996,3.21 L26.9996,34 L28.9996,34 L28.9996,3.21 L35.8746,10 L36.9996,8.889 L29.1246,1.112 L27.9996,-2.84217094e-14 Z M33,15.0003 L33,17.0003 L45,17.0003 L45,51.0003 L10.999,51.0003 L10.999,17.0003 L23,17.0003 L23,15.0003 L9,15.0003 L9,53.0003 L46.999,53.0003 L46.999,15.0003 L33,15.0003 Z"></path>
                    </g>
                </g>
            </g>
        </g>
    </g>
</svg>