<?xml version="1.0" encoding="UTF-8" standalone="no"?>
<svg width="50px" height="50px" viewBox="0 0 50 50" version="1.1" xmlns="http://www.w3.org/2000/svg" xmlns:xlink="http://www.w3.org/1999/xlink">
    <!-- Generator: Sketch 39.1 (31720) - http://www.bohemiancoding.com/sketch -->
    <title>contact_off@3x</title>
    <desc>Created with Sketch.</desc>
    <defs></defs>
    <g id="-Component-Usage" stroke="none" stroke-width="1" fill="none" fill-rule="evenodd">
        <g id="Components" transform="translate(-2888.000000, -439.000000)" fill="#CBD2DC">
            <g id="System-Icons" transform="translate(1437.000000, 129.000000)">
                <g id="Tab-Bar-Icons" transform="translate(50.000000, 303.000000)">
                    <g id="contact_off" transform="translate(1378.000000, 0.000000)">
                        <path d="M48,7 C34.193,7 23,18.193 23,32 C23,45.807 34.193,57 48,57 C61.807,57 73,45.807 73,32 C73,18.193 61.807,7 48,7 Z M62.711,49.678 C61.216,49.304 58.614,48.654 56,48 C52,47 54,40 54,40 C54,40 56,39 56,34 C56,34 58,33 58,30 C58,28.667 57,28 57,28 L56.701,26.954 C57.997,25.595 58,23.512 58,22 C58,20 55,14 49,14 C43,14 38,19 38,22 C38,23.842 38.753,25.68 39.335,26.828 L39,28 C39,28 38,28.667 38,30 C38,33 40,34 40,34 C40,39 42,40 42,40 C42,40 44,47 40,48 C37.386,48.654 34.783,49.304 33.289,49.678 C28.225,45.459 25,39.107 25,32 C25,19.298 35.297,9 48,9 C60.702,9 71,19.298 71,32 C71,39.107 67.775,45.459 62.711,49.678 Z"></path>
                    </g>
                </g>
            </g>
        </g>
    </g>
</svg>