<?xml version="1.0" encoding="UTF-8" standalone="no"?>
<svg width="50px" height="38px" viewBox="0 0 50 38" version="1.1" xmlns="http://www.w3.org/2000/svg" xmlns:xlink="http://www.w3.org/1999/xlink">
    <!-- Generator: Sketch 39.1 (31720) - http://www.bohemiancoding.com/sketch -->
    <title>camera@3x</title>
    <desc>Created with Sketch.</desc>
    <defs></defs>
    <g id="-Component-Usage" stroke="none" stroke-width="1" fill="none" fill-rule="evenodd">
        <g id="Components" transform="translate(-1557.000000, -261.000000)" fill="#419BF9">
            <g id="System-Icons" transform="translate(1437.000000, 129.000000)">
                <g id="Navigation-/-Tool-Bar-Icons" transform="translate(50.000000, 124.000000)">
                    <g id="camera" transform="translate(67.000000, 0.000000)">
                        <path d="M50,14 L41.545,14 C40.755,14 40.013,13.618 39.554,12.975 L37.485,10.078 C36.553,8.774 35.049,8 33.446,8 L22.554,8 C20.951,8 19.447,8.774 18.515,10.078 L16.446,12.975 C15.987,13.618 15.245,14 14.455,14 L6,14 C4.35,14 3,15.35 3,17 L3,43 C3,44.65 4.35,46 6,46 L50,46 C51.65,46 53,44.65 53,43 L53,17 C53,15.35 51.65,14 50,14 Z M28,40 C21.925,40 17,35.075 17,29 C17,22.925 21.925,18 28,18 C34.075,18 39,22.925 39,29 C39,35.075 34.075,40 28,40 Z M42,20.5 C41.172,20.5 40.5,19.828 40.5,19 C40.5,18.172 41.172,17.5 42,17.5 C42.828,17.5 43.5,18.172 43.5,19 C43.5,19.828 42.828,20.5 42,20.5 Z M28,20 C23.029,20 19,24.029 19,29 C19,33.97 23.029,38 28,38 C32.971,38 37,33.97 37,29 C37,24.029 32.971,20 28,20 Z M13,10.7 C13,10.315 12.685,10 12.3,10 L9.7,10 C9.315,10 9,10.315 9,10.7 L9,12 L13,12 L13,10.7 Z"></path>
                    </g>
                </g>
            </g>
        </g>
    </g>
</svg>