<?xml version="1.0" encoding="UTF-8" standalone="no"?>
<svg width="46px" height="46px" viewBox="0 0 46 46" version="1.1" xmlns="http://www.w3.org/2000/svg" xmlns:xlink="http://www.w3.org/1999/xlink">
    <!-- Generator: Sketch 39.1 (31720) - http://www.bohemiancoding.com/sketch -->
    <title>compose@3x</title>
    <desc>Created with Sketch.</desc>
    <defs></defs>
    <g id="-Component-Usage" stroke="none" stroke-width="1" fill="none" fill-rule="evenodd">
        <g id="Components" transform="translate(-2823.000000, -254.000000)" fill="#0076FF">
            <g id="System-Icons" transform="translate(1437.000000, 129.000000)">
                <g id="Navigation-/-Tool-Bar-Icons" transform="translate(50.000000, 124.000000)">
                    <g id="compose" transform="translate(1327.000000, 0.000000)">
                        <path d="M30.2443,28.0836 L28.7323,27.2666 L27.9163,25.7556 L47.3223,6.3496 L46.1223,5.1506 L27.0753,24.1986 L24.5003,31.4996 L31.8013,28.9246 L50.8493,9.8776 L49.6503,8.6776 L30.2443,28.0836 Z M54.6926,4.5495 L51.4506,1.3075 C51.0406,0.8975 50.3756,0.8975 49.9656,1.3075 L47.5336,3.7395 L52.2606,8.4665 L54.6926,6.0335 C55.1026,5.6245 55.1026,4.9595 54.6926,4.5495 Z M45,44.9999 L11,44.9999 L11,10.9999 L37,10.9999 L39,8.9999 L9,8.9999 L9,46.9999 L47,46.9999 L47,16.9999 L45,18.9999 L45,44.9999 Z"></path>
                    </g>
                </g>
            </g>
        </g>
    </g>
</svg>