<?xml version="1.0" encoding="UTF-8" standalone="no"?>
<svg width="46px" height="46px" viewBox="0 0 46 46" version="1.1" xmlns="http://www.w3.org/2000/svg" xmlns:xlink="http://www.w3.org/1999/xlink">
    <!-- Generator: Sketch 39.1 (31720) - http://www.bohemiancoding.com/sketch -->
    <title>most_viewed_off@3x</title>
    <desc>Created with Sketch.</desc>
    <defs></defs>
    <g id="-Component-Usage" stroke="none" stroke-width="1" fill="none" fill-rule="evenodd">
        <g id="Components" transform="translate(-1618.000000, -441.000000)" fill="#CBD2DC">
            <g id="System-Icons" transform="translate(1437.000000, 129.000000)">
                <g id="Tab-Bar-Icons" transform="translate(50.000000, 303.000000)">
                    <g id="most_viewed_off" transform="translate(106.000000, 0.000000)">
                        <path d="M25,55 L71,55 L71,9 L25,9 L25,55 Z M27,53 L69,53 L69,11 L27,11 L27,53 Z M43,21 L65,21 L65,19 L43,19 L43,21 Z M33,24 L36,22 L39,24 L38,21 L40,19 L37,19 L36,16 L35,19 L32,19 L34,21 L33,24 Z M43,33 L65,33 L65,31 L43,31 L43,33 Z M33,36 L36,34 L39,36 L38,33 L40,31 L37,31 L36,28 L35,31 L32,31 L34,33 L33,36 Z M43,45 L65,45 L65,43 L43,43 L43,45 Z M33,48 L36,46 L39,48 L38,45 L40,43 L37,43 L36,40 L35,43 L32,43 L34,45 L33,48 Z"></path>
                    </g>
                </g>
            </g>
        </g>
    </g>
</svg>