<?xml version="1.0" encoding="UTF-8" standalone="no"?>
<svg width="38px" height="50px" viewBox="0 0 38 50" version="1.1" xmlns="http://www.w3.org/2000/svg" xmlns:xlink="http://www.w3.org/1999/xlink">
    <!-- Generator: Sketch 39.1 (31720) - http://www.bohemiancoding.com/sketch -->
    <title>trash@3x</title>
    <desc>Created with Sketch.</desc>
    <defs></defs>
    <g id="-Component-Usage" stroke="none" stroke-width="1" fill="none" fill-rule="evenodd">
        <g id="Components" transform="translate(-2991.000000, -255.000000)" fill="#0076FF">
            <g id="System-Icons" transform="translate(1437.000000, 129.000000)">
                <g id="Navigation-/-Tool-Bar-Icons" transform="translate(50.000000, 124.000000)">
                    <g id="trash" transform="translate(1495.000000, 0.000000)">
                        <path d="M37,8 L37,7 C37,4.25 34.75,2 32,2 L24,2 C21.25,2 19,4.25 19,7 L19,8 L9,8 L9,10 L11.091,10 L12.79,47.386 C12.908,49.968 14.988,52 17.514,52 L38.486,52 C41.012,52 43.093,49.968 43.21,47.386 L44.909,10 L47,10 L47,8 L37,8 Z M21,7 C21,5.346 22.346,4 24,4 L32,4 C33.654,4 35,5.346 35,7 L35,8 L21,8 L21,7 Z M41.212,47.295 C41.143,48.812 39.946,50 38.486,50 L17.514,50 C16.055,50 14.857,48.812 14.788,47.295 L13.093,10 L42.907,10 L41.212,47.295 Z M27.0002,46.0001 L29.0002,46.0001 L29.0002,14.0001 L27.0002,14.0001 L27.0002,46.0001 Z M37.0002,14.0001 L35.0002,14.0001 L33.0002,46.0001 L35.0002,46.0001 L37.0002,14.0001 Z M23.0002,46.0001 L21.0002,14.0001 L19.0002,14.0001 L21.0002,46.0001 L23.0002,46.0001 Z"></path>
                    </g>
                </g>
            </g>
        </g>
    </g>
</svg>