<?xml version="1.0" encoding="UTF-8" standalone="no"?>
<svg width="35px" height="35px" viewBox="0 0 35 35" version="1.1" xmlns="http://www.w3.org/2000/svg" xmlns:xlink="http://www.w3.org/1999/xlink">
    <!-- Generator: Sketch 39.1 (31720) - http://www.bohemiancoding.com/sketch -->
    <title>search@3x</title>
    <desc>Created with Sketch.</desc>
    <defs></defs>
    <g id="-Component-Usage" stroke="none" stroke-width="1" fill="none" fill-rule="evenodd">
        <g id="Components" transform="translate(-2741.000000, -263.000000)" fill="#0076FF">
            <g id="System-Icons" transform="translate(1437.000000, 129.000000)">
                <g id="Navigation-/-Tool-Bar-Icons" transform="translate(50.000000, 124.000000)">
                    <g id="search" transform="translate(1243.000000, 0.000000)">
                        <path d="M46,42.525 L36.05,32.575 C37.892,30.205 39,27.235 39,24 C39,16.268 32.732,10 25,10 C17.268,10 11,16.268 11,24 C11,31.732 17.268,38 25,38 C28.235,38 31.205,36.892 33.575,35.05 L43.525,45 L46,42.525 Z M13,24 C13,17.373 18.373,12 25,12 C31.627,12 37,17.373 37,24 C37,30.627 31.627,36 25,36 C18.373,36 13,30.627 13,24 Z"></path>
                    </g>
                </g>
            </g>
        </g>
    </g>
</svg>