<?xml version="1.0" encoding="UTF-8" standalone="no"?>
<svg width="42px" height="26px" viewBox="0 0 42 26" version="1.1" xmlns="http://www.w3.org/2000/svg" xmlns:xlink="http://www.w3.org/1999/xlink">
    <!-- Generator: Sketch 39.1 (31720) - http://www.bohemiancoding.com/sketch -->
    <title>wishlist@3x</title>
    <desc>Created with Sketch.</desc>
    <defs></defs>
    <g id="-Component-Usage" stroke="none" stroke-width="1" fill="none" fill-rule="evenodd">
        <g id="Components" transform="translate(-2317.000000, -268.000000)" fill="#0076FF">
            <g id="System-Icons" transform="translate(1437.000000, 129.000000)">
                <g id="Navigation-/-Tool-Bar-Icons" transform="translate(50.000000, 124.000000)">
                    <g id="wishlist" transform="translate(823.000000, 0.000000)">
                        <path d="M7,15 L11,15 L11,19 L7,19 L7,15 Z M15,16 L49,16 L49,18 L15,18 L15,16 Z M7,26 L11,26 L11,30 L7,30 L7,26 Z M15,27 L49,27 L49,29 L15,29 L15,27 Z M7,37 L11,37 L11,41 L7,41 L7,37 Z M15,38 L49,38 L49,40 L15,40 L15,38 Z"></path>
                    </g>
                </g>
            </g>
        </g>
    </g>
</svg>