<?xml version="1.0" encoding="UTF-8" standalone="no"?>
<svg width="37px" height="48px" viewBox="0 0 37 48" version="1.1" xmlns="http://www.w3.org/2000/svg" xmlns:xlink="http://www.w3.org/1999/xlink">
    <!-- Generator: Sketch 39.1 (31720) - http://www.bohemiancoding.com/sketch -->
    <title>music_off@3x</title>
    <desc>Created with Sketch.</desc>
    <defs></defs>
    <g id="-Component-Usage" stroke="none" stroke-width="1" fill="none" fill-rule="evenodd">
        <g id="Components" transform="translate(-2361.000000, -439.000000)" fill="#CBD2DC">
            <g id="System-Icons" transform="translate(1437.000000, 129.000000)">
                <g id="Tab-Bar-Icons" transform="translate(50.000000, 303.000000)">
                    <g id="music_off" transform="translate(848.000000, 0.000000)">
                        <path d="M61.5140576,7 C61.4170576,7 61.3180576,7.01 61.2190576,7.029 L39.1960576,11.434 C38.5000576,11.573 37.9990576,12.184 37.9990576,12.894 L37.9990576,40 C37.9990576,41 37.9990576,43 34.9990576,43 C34.5780576,43 34.0960576,42.96 33.5480576,42.873 C33.1570576,42.811 32.7690576,42.781 32.3880576,42.781 C28.9810576,42.78 26.1140576,45.203 26.0040576,48.745 C25.8730576,52.915 28.9360576,55 31.9990576,55 C34.9990576,55 39.9990576,52 39.9990576,49 L39.9990576,23.407 C39.9990576,22.938 40.3310576,22.534 40.7910576,22.442 L59.8220576,18.635 C59.8880576,18.622 59.9530576,18.616 60.0170576,18.616 C60.5470576,18.616 60.9990576,19.047 60.9990576,19.601 L60.9990576,35 C60.9990576,36 60.9990576,38 57.9990576,38 C57.5780576,38 57.0960576,37.96 56.5480576,37.873 C56.1570576,37.811 55.7690576,37.781 55.3880576,37.781 C51.9810576,37.78 49.1140576,40.203 49.0040576,43.745 C48.8730576,47.915 51.9360576,50 54.9990576,50 C57.9990576,50 62.9990576,47 62.9990576,44 L62.9990576,8.489 C62.9990576,7.651 62.3150576,7 61.5140576,7 Z M37.9990576,44.262 L37.9990576,49 C37.9990576,50.533 34.2990576,53 31.9990576,53 C30.8270576,53 29.7410576,52.573 29.0200576,51.83 C28.3050576,51.092 27.9630576,50.076 28.0030576,48.808 C28.0750576,46.474 29.9200576,44.78 32.3880576,44.781 C32.6670576,44.781 32.9510576,44.803 33.2330576,44.848 C33.8660576,44.949 34.4600576,45 34.9990576,45 C35.8730576,45 37.0230576,44.858 37.9990576,44.262 Z M60.9990576,39.262 L60.9990576,44 C60.9990576,45.533 57.2990576,48 54.9990576,48 C53.8270576,48 52.7410576,47.573 52.0200576,46.83 C51.3050576,46.092 50.9630576,45.076 51.0030576,43.808 C51.0750576,41.474 52.9200576,39.78 55.3880576,39.781 C55.6670576,39.781 55.9510576,39.803 56.2330576,39.848 C56.8660576,39.949 57.4600576,40 57.9990576,40 C58.8730576,40 60.0230576,39.858 60.9990576,39.262 Z M60.9990576,9.113 L60.9990576,16.782 C60.6920576,16.675 60.3610576,16.616 60.0170576,16.616 C59.8210576,16.616 59.6230576,16.636 59.4300576,16.674 L40.3990576,20.48 C40.2620576,20.508 40.1280576,20.545 39.9990576,20.59 L39.9990576,13.313 L60.9990576,9.113 Z"></path>
                    </g>
                </g>
            </g>
        </g>
    </g>
</svg>