<?xml version="1.0" encoding="UTF-8" standalone="no"?>
<svg width="46px" height="10px" viewBox="0 0 46 10" version="1.1" xmlns="http://www.w3.org/2000/svg" xmlns:xlink="http://www.w3.org/1999/xlink">
    <!-- Generator: Sketch 39.1 (31720) - http://www.bohemiancoding.com/sketch -->
    <title>more_off@3x</title>
    <desc>Created with Sketch.</desc>
    <defs></defs>
    <g id="-Component-Usage" stroke="none" stroke-width="1" fill="none" fill-rule="evenodd">
        <g id="Components" transform="translate(-2572.000000, -459.000000)" fill="#CBD2DC">
            <g id="System-Icons" transform="translate(1437.000000, 129.000000)">
                <g id="Tab-Bar-Icons" transform="translate(50.000000, 303.000000)">
                    <g id="more_off" transform="translate(1060.000000, 0.000000)">
                        <path d="M66,27 C63.239,27 61,29.239 61,32 C61,34.761 63.239,37 66,37 C68.761,37 71,34.761 71,32 C71,29.239 68.761,27 66,27 Z M48,27 C45.239,27 43,29.239 43,32 C43,34.761 45.239,37 48,37 C50.761,37 53,34.761 53,32 C53,29.239 50.761,27 48,27 Z M30,27 C27.239,27 25,29.239 25,32 C25,34.761 27.239,37 30,37 C32.761,37 35,34.761 35,32 C35,29.239 32.761,27 30,27 Z M66,35 C64.343,35 63,33.657 63,32 C63,30.343 64.343,29 66,29 C67.657,29 69,30.343 69,32 C69,33.657 67.657,35 66,35 Z M48,35 C46.343,35 45,33.657 45,32 C45,30.343 46.343,29 48,29 C49.657,29 51,30.343 51,32 C51,33.657 49.657,35 48,35 Z M30,35 C28.343,35 27,33.657 27,32 C27,30.343 28.343,29 30,29 C31.657,29 33,30.343 33,32 C33,33.657 31.657,35 30,35 Z"></path>
                    </g>
                </g>
            </g>
        </g>
    </g>
</svg>