<?xml version="1.0" encoding="UTF-8" standalone="no"?>
<svg width="49px" height="38px" viewBox="0 0 49 38" version="1.1" xmlns="http://www.w3.org/2000/svg" xmlns:xlink="http://www.w3.org/1999/xlink">
    <!-- Generator: Sketch 39.1 (31720) - http://www.bohemiancoding.com/sketch -->
    <title>reply@3x</title>
    <desc>Created with Sketch.</desc>
    <defs></defs>
    <g id="-Component-Usage" stroke="none" stroke-width="1" fill="none" fill-rule="evenodd">
        <g id="Components" transform="translate(-3069.000000, -261.000000)" fill="#0076FF">
            <g id="System-Icons" transform="translate(1437.000000, 129.000000)">
                <g id="Navigation-/-Tool-Bar-Icons" transform="translate(50.000000, 124.000000)">
                    <g id="reply" transform="translate(1579.000000, 0.000000)">
                        <path d="M26,8 L3,25 L26,42 L26,31.999 C26.349,31.997 26.832,31.986 27.423,31.986 C32.217,31.986 44.143,32.73 49.637,45.159 C49.883,45.717 50.384,46 50.996,46 C50.996,46 52,46 52,44 C52,35.016 47.994,18.062 26,18.003 L26,8 Z M24,11.965 L24,18.003 L24,19.997 L25.995,20.003 C45.429,20.055 49.225,34.01 49.877,41.297 C45.365,33.88 37.673,29.986 27.423,29.986 C27.036,29.986 26.695,29.99 26.405,29.994 L25.988,29.999 L24,30.011 L24,31.999 L24,38.035 L6.364,25 L24,11.965 Z"></path>
                    </g>
                </g>
            </g>
        </g>
    </g>
</svg>