<?xml version="1.0" encoding="UTF-8" standalone="no"?>
<svg width="36px" height="43px" viewBox="0 0 36 43" version="1.1" xmlns="http://www.w3.org/2000/svg" xmlns:xlink="http://www.w3.org/1999/xlink">
    <!-- Generator: Sketch 39.1 (31720) - http://www.bohemiancoding.com/sketch -->
    <title>refresh@3x</title>
    <desc>Created with Sketch.</desc>
    <defs></defs>
    <g id="-Component-Usage" stroke="none" stroke-width="1" fill="none" fill-rule="evenodd">
        <g id="Components" transform="translate(-1983.000000, -258.000000)" fill="#0076FF">
            <g id="System-Icons" transform="translate(1437.000000, 129.000000)">
                <g id="Navigation-/-Tool-Bar-Icons" transform="translate(50.000000, 124.000000)">
                    <g id="refresh" transform="translate(487.000000, 0.000000)">
                        <path d="M44.949,29 L40.949,29 C40.973,29.332 41,29.662 41,30 C41,37.732 34.732,44 27,44 C19.268,44 13,37.732 13,30 C13,22.268 19.268,16 27,16 L27,23 L43,14 L27,5 L27,12 C17.058,12 9,20.059 9,30 C9,39.941 17.058,48 27,48 C36.941,48 45,39.941 45,30 C45,29.662 44.967,29.333 44.949,29"></path>
                    </g>
                </g>
            </g>
        </g>
    </g>
</svg>