<?xml version="1.0" encoding="UTF-8" standalone="no"?>
<svg width="48px" height="44px" viewBox="0 0 48 44" version="1.1" xmlns="http://www.w3.org/2000/svg" xmlns:xlink="http://www.w3.org/1999/xlink">
    <!-- Generator: Sketch 39.1 (31720) - http://www.bohemiancoding.com/sketch -->
    <title>love_off@3x</title>
    <desc>Created with Sketch.</desc>
    <defs></defs>
    <g id="-Component-Usage" stroke="none" stroke-width="1" fill="none" fill-rule="evenodd">
        <g id="Components" transform="translate(-2677.000000, -443.000000)" fill="#CBD2DC">
            <g id="System-Icons" transform="translate(1437.000000, 129.000000)">
                <g id="Tab-Bar-Icons" transform="translate(50.000000, 303.000000)">
                    <g id="love_off" transform="translate(1166.000000, 0.000000)">
                        <path d="M59,11 C53,11 48,17 48,17 C48,17 43,11 37,11 C31,11 24,16 24,24 C24,32 32,44 48,55 C64,44 72,32 72,24 C72,16 65,11 59,11 Z M59,13 C63.612,13 70,16.823 70,24 C70,30.064 64.21,41.104 48,52.562 C31.79,41.104 26,30.064 26,24 C26,16.823 32.388,13 37,13 C41.971,13 46.422,18.23 46.464,18.28 L48,20.124 L49.536,18.28 C49.58,18.228 54.074,13 59,13 Z"></path>
                    </g>
                </g>
            </g>
        </g>
    </g>
</svg>