<?xml version="1.0" encoding="UTF-8" standalone="no"?>
<svg width="46px" height="51px" viewBox="0 0 46 51" version="1.1" xmlns="http://www.w3.org/2000/svg" xmlns:xlink="http://www.w3.org/1999/xlink">
    <!-- Generator: Sketch 39.1 (31720) - http://www.bohemiancoding.com/sketch -->
    <title>stopwatch_off@3x</title>
    <desc>Created with Sketch.</desc>
    <defs></defs>
    <g id="-Component-Usage" stroke="none" stroke-width="1" fill="none" fill-rule="evenodd">
        <g id="Components" transform="translate(-3208.000000, -436.000000)" fill="#CBD2DC">
            <g id="System-Icons" transform="translate(1437.000000, 129.000000)">
                <g id="Tab-Bar-Icons" transform="translate(50.000000, 303.000000)">
                    <g id="stopwatch_off" transform="translate(1696.000000, 0.000000)">
                        <path d="M50,9.092 L50,4 L46,4 L46,9.092 C34.235,10.106 25,19.972 25,32 C25,44.703 35.297,55 48,55 C60.703,55 71,44.703 71,32 C71,19.972 61.765,10.106 50,9.092 Z M48,53 C36.402,53 27,43.598 27,32 C27,20.402 36.402,11 48,11 C59.598,11 69,20.402 69,32 C69,43.598 59.598,53 48,53 Z M65.9941,16.1272 L67.1111,15.0102 L68.1711,16.0712 L71.0001,13.2422 L66.7571,9.0002 L63.9291,11.8282 L64.9891,12.8892 L63.8731,14.0062 C64.6231,14.6682 65.3311,15.3772 65.9941,16.1272 Z M49,29.1837 L49,14.9997 L47,14.9997 L47,29.1837 C45.837,29.5967 45,30.6957 45,31.9997 C45,33.3047 45.837,34.4027 47,34.8167 L47,37.9997 L49,37.9997 L49,34.8167 C50.163,34.4027 51,33.3047 51,31.9997 C51,30.6957 50.163,29.5967 49,29.1837 Z"></path>
                    </g>
                </g>
            </g>
        </g>
    </g>
</svg>