<?xml version="1.0" encoding="UTF-8" standalone="no"?>
<svg width="50px" height="42px" viewBox="0 0 50 42" version="1.1" xmlns="http://www.w3.org/2000/svg" xmlns:xlink="http://www.w3.org/1999/xlink">
    <!-- Generator: Sketch 39.1 (31720) - http://www.bohemiancoding.com/sketch -->
    <title>video_off@3x</title>
    <desc>Created with Sketch.</desc>
    <defs></defs>
    <g id="-Component-Usage" stroke="none" stroke-width="1" fill="none" fill-rule="evenodd">
        <g id="Components" transform="translate(-2464.000000, -443.000000)" fill="#CBD2DC">
            <g id="System-Icons" transform="translate(1437.000000, 129.000000)">
                <g id="Tab-Bar-Icons" transform="translate(50.000000, 303.000000)">
                    <g id="video_off" transform="translate(954.000000, 0.000000)">
                        <path d="M23,11 L73,11 L73,53 L23,53 L23,11 Z M25,13 L32,13 L32,19 L25,19 L25,13 Z M64,13 L71,13 L71,19 L64,19 L64,13 Z M34,13 L62,13 L62,31 L34,31 L34,13 Z M34,33 L62,33 L62,51 L34,51 L34,33 Z M25,21 L32,21 L32,27 L25,27 L25,21 Z M64,21 L71,21 L71,27 L64,27 L64,21 Z M25,29 L32,29 L32,35 L25,35 L25,29 Z M64,29 L71,29 L71,35 L64,35 L64,29 Z M25,37 L32,37 L32,43 L25,43 L25,37 Z M64,37 L71,37 L71,43 L64,43 L64,37 Z M25,45 L32,45 L32,51 L25,51 L25,45 Z M64,45 L71,45 L71,51 L64,51 L64,45 Z"></path>
                    </g>
                </g>
            </g>
        </g>
    </g>
</svg>