<?xml version="1.0" encoding="UTF-8" standalone="no"?>
<svg width="49px" height="49px" viewBox="0 0 49 49" version="1.1" xmlns="http://www.w3.org/2000/svg" xmlns:xlink="http://www.w3.org/1999/xlink">
    <!-- Generator: Sketch 39.1 (31720) - http://www.bohemiancoding.com/sketch -->
    <title>search_off@3x</title>
    <desc>Created with Sketch.</desc>
    <defs></defs>
    <g id="-Component-Usage" stroke="none" stroke-width="1" fill="none" fill-rule="evenodd">
        <g id="Components" transform="translate(-1829.000000, -440.000000)" fill="#CBD2DC">
            <g id="System-Icons" transform="translate(1437.000000, 129.000000)">
                <g id="Tab-Bar-Icons" transform="translate(50.000000, 303.000000)">
                    <g id="search_off" transform="translate(318.000000, 0.000000)">
                        <path d="M73,54 L57.843,38.843 C60.439,35.594 62,31.482 62,27 C62,16.507 53.493,8 43,8 C32.507,8 24,16.507 24,27 C24,37.493 32.507,46 43,46 C47.482,46 51.594,44.439 54.843,41.843 L70,57 L73,54 Z M26,27 C26,17.611 33.611,10 43,10 C52.389,10 60,17.611 60,27 C60,36.389 52.389,44 43,44 C33.611,44 26,36.389 26,27 Z"></path>
                    </g>
                </g>
            </g>
        </g>
    </g>
</svg>