<?xml version="1.0" encoding="UTF-8" standalone="no"?>
<svg width="50px" height="50px" viewBox="0 0 50 50" version="1.1" xmlns="http://www.w3.org/2000/svg" xmlns:xlink="http://www.w3.org/1999/xlink">
    <!-- Generator: Sketch 39.1 (31720) - http://www.bohemiancoding.com/sketch -->
    <title>timer_off@3x</title>
    <desc>Created with Sketch.</desc>
    <defs></defs>
    <g id="-Component-Usage" stroke="none" stroke-width="1" fill="none" fill-rule="evenodd">
        <g id="Components" transform="translate(-3312.000000, -439.000000)" fill="#CBD2DC">
            <g id="System-Icons" transform="translate(1437.000000, 129.000000)">
                <g id="Tab-Bar-Icons" transform="translate(50.000000, 303.000000)">
                    <g id="timer_off" transform="translate(1802.000000, 0.000000)">
                        <path d="M48,7 C47.665,7 47.332,7.012 47,7.025 L47,8 L47,9.025 L47,20 L49,20 L49,9.025 C61.238,9.549 71,19.633 71,32 C71,44.703 60.703,55 48,55 C35.297,55 25,44.703 25,32 C25,25.698 27.537,19.989 31.643,15.835 L30.264,14.383 C25.775,18.903 23,25.127 23,32 C23,45.807 34.193,57 48,57 C61.807,57 73,45.807 73,32 C73,18.193 61.807,7 48,7 Z M47.0569,34.5248 C47.5549,35.0688 48.3339,35.1598 48.7669,34.7258 L49.7469,33.7468 L50.7259,32.7668 C51.1599,32.3338 51.0689,31.5548 50.5249,31.0568 C49.3399,29.9708 47.1779,28.0818 44.5569,26.2078 C40.4349,23.2598 35.6069,19.6068 35.6069,19.6068 C35.6069,19.6068 39.2599,24.4348 42.2079,28.5578 C44.0819,31.1778 45.9709,33.3398 47.0569,34.5248 Z"></path>
                    </g>
                </g>
            </g>
        </g>
    </g>
</svg>