<?xml version="1.0" encoding="utf-8"?>
<!-- Generator: Adobe Illustrator 16.0.0, SVG Export Plug-In . SVG Version: 6.00 Build 0)  -->
<!DOCTYPE svg PUBLIC "-//W3C//DTD SVG 1.1//EN" "http://www.w3.org/Graphics/SVG/1.1/DTD/svg11.dtd">
<svg version="1.1" id="图层_1" xmlns="http://www.w3.org/2000/svg" xmlns:xlink="http://www.w3.org/1999/xlink" x="0px" y="0px"
	 width="10px" height="10px" viewBox="0 0 10 10" enable-background="new 0 0 10 10" xml:space="preserve">
<path fill="#ED3714" stroke="#FFFFFF" stroke-width="0.7" stroke-miterlimit="10" d="M5,0.5c2.475,0,4.5,2.025,4.5,4.5
	c0,2.476-2.025,4.5-4.5,4.5S0.5,7.476,0.5,5C0.5,2.525,2.525,0.5,5,0.5"/>
<g>
	<g>
		<path fill="#FFFFFF" d="M7.919,4.058H5.994L4.967,1.844L3.974,4.058H2.081l1.411,1.571L3.043,7.811L7.919,4.058z M4.423,4.667
			L5,3.512l0.545,1.155h0.417l-1.893,1.54L4.23,5.565L3.589,4.667H4.423L4.423,4.667z M5.161,6.88l2.02,0.93L6.668,5.597L5.161,6.88
			z"/>
	</g>
</g>
</svg>
