<?xml version="1.0" encoding="utf-8"?>
<!-- Generator: Adobe Illustrator 16.0.0, SVG Export Plug-In . SVG Version: 6.00 Build 0)  -->
<!DOCTYPE svg PUBLIC "-//W3C//DTD SVG 1.1//EN" "http://www.w3.org/Graphics/SVG/1.1/DTD/svg11.dtd">
<svg version="1.1" id="图层_1" xmlns="http://www.w3.org/2000/svg" xmlns:xlink="http://www.w3.org/1999/xlink" x="0px" y="0px"
	 width="10px" height="10px" viewBox="0 0 10 10" enable-background="new 0 0 10 10" xml:space="preserve">
<path fill="#FD5093" stroke="#FFFFFF" stroke-width="0.7" stroke-miterlimit="10" d="M5,0.5c2.475,0,4.5,2.025,4.5,4.5
	S7.475,9.5,5,9.5S0.5,7.475,0.5,5S2.525,0.5,5,0.5"/>
<g>
	<g>
		<path fill="#FFFFFF" d="M7.47,4.125V2.561C5.997,2.714,5.354,6.243,5.354,6.243H4.709c0,0-0.706-3.529-2.179-3.682v1.565
			c0,0,0.736,1.687,1.534,2.117v0.584H3.451L3.144,7.133v0.307h0.675l0.307-0.307h1.841l0.307,0.307h0.613V7.133L6.581,6.826H5.997
			V6.243C6.765,5.844,7.47,4.125,7.47,4.125z"/>
	</g>
</g>
</svg>
