<?xml version="1.0" encoding="utf-8"?>
<!-- Generator: Adobe Illustrator 16.0.0, SVG Export Plug-In . SVG Version: 6.00 Build 0)  -->
<!DOCTYPE svg PUBLIC "-//W3C//DTD SVG 1.1//EN" "http://www.w3.org/Graphics/SVG/1.1/DTD/svg11.dtd">
<svg version="1.1" id="图层_1" xmlns="http://www.w3.org/2000/svg" xmlns:xlink="http://www.w3.org/1999/xlink" x="0px" y="0px"
	 width="10px" height="10px" viewBox="0 0 10 10" enable-background="new 0 0 10 10" xml:space="preserve">
<path fill="#77C2F9" d="M5,0c2.762,0,5,2.239,5,5s-2.238,5-5,5c-2.762,0-5-2.239-5-5C0,2.239,2.238,0,5,0z"/>
<path fill="#FFFFFF" d="M7.363,2.345H5.898c-0.162,0-0.293,0.131-0.293,0.293c0,0.162,0.131,0.293,0.293,0.293h0.763l-0.82,0.82
	c-0.367-0.281-0.824-0.45-1.321-0.45c-1.202,0-2.177,0.974-2.177,2.176c0,1.203,0.975,2.177,2.177,2.177S6.698,6.68,6.698,5.478
	c0-0.493-0.167-0.947-0.442-1.311L7.07,3.352v0.75c0,0.162,0.131,0.293,0.293,0.293s0.293-0.13,0.293-0.293V2.638
	C7.655,2.477,7.524,2.345,7.363,2.345 M4.512,6.987C3.677,6.987,3,6.31,3,5.474c0-0.835,0.677-1.512,1.512-1.512
	c0.836,0,1.512,0.677,1.512,1.512C6.024,6.31,5.348,6.987,4.512,6.987"/>
</svg>
