<?xml version="1.0" encoding="utf-8"?>
<!-- Generator: Adobe Illustrator 16.0.0, SVG Export Plug-In . SVG Version: 6.00 Build 0)  -->
<!DOCTYPE svg PUBLIC "-//W3C//DTD SVG 1.1//EN" "http://www.w3.org/Graphics/SVG/1.1/DTD/svg11.dtd">
<svg version="1.1" id="图层_1" xmlns="http://www.w3.org/2000/svg" xmlns:xlink="http://www.w3.org/1999/xlink" x="0px" y="0px"
	 width="10px" height="10px" viewBox="0 0 10 10" enable-background="new 0 0 10 10" xml:space="preserve">
<path fill="#F880AB" d="M5,0c2.762,0,5,2.239,5,5c0,2.761-2.238,5-5,5c-2.761,0-5-2.239-5-5C0,2.239,2.239,0,5,0z"/>
<path fill="#FFFFFF" d="M5.507,2.322c-1.203,0-2.178,0.975-2.178,2.177c0,0.481,0.158,0.924,0.423,1.285L3.443,6.093L2.871,5.522
	c0,0-0.229-0.229-0.457,0c-0.229,0.228,0,0.457,0,0.457L2.986,6.55L2.414,7.122l0.457,0.457l0.572-0.572l0.571,0.572
	c0,0,0.229,0.228,0.457,0c0.229-0.229,0-0.457,0-0.457L3.9,6.55l0.307-0.307c0.363,0.271,0.813,0.434,1.3,0.434
	c1.202,0,2.177-0.975,2.177-2.177C7.684,3.297,6.709,2.322,5.507,2.322 M5.484,6.015c-0.833,0-1.507-0.675-1.507-1.507
	c0-0.832,0.675-1.506,1.507-1.506s1.507,0.674,1.507,1.506C6.991,5.34,6.316,6.015,5.484,6.015"/>
</svg>
