<?xml version="1.0" encoding="utf-8"?>
<!-- Generator: Adobe Illustrator 16.0.0, SVG Export Plug-In . SVG Version: 6.00 Build 0)  -->
<!DOCTYPE svg PUBLIC "-//W3C//DTD SVG 1.1//EN" "http://www.w3.org/Graphics/SVG/1.1/DTD/svg11.dtd">
<svg version="1.1" id="图层_1" xmlns="http://www.w3.org/2000/svg" xmlns:xlink="http://www.w3.org/1999/xlink" x="0px" y="0px"
	 width="10px" height="10px" viewBox="0 0 10 10" enable-background="new 0 0 10 10" xml:space="preserve">
<path fill="#969696" d="M7.143,1.437C6.907,1.671,6.593,1.909,6.277,2.12C6.905,1.272,6.905,0.005,5.013,0
	C3.095,0.008,3.098,1.284,3.74,2.131C3.419,1.918,3.098,1.678,2.856,1.438C0.714,1.437,0,3.578,0,4.291
	c0,2.142,1.429,3.569,1.429,3.569v0.715L2.143,10h5.715l0.714-1.425V7.859c0,0,1.428-1.427,1.428-3.569
	C10,3.577,9.285,1.437,7.143,1.437"/>
<path fill="#FEFEFE" d="M2.143,9.281h5.715V8.566H2.143V9.281 M5.006,2.457c0.675,0,1.893-1.747,0-1.747
	C3.087,0.71,4.331,2.457,5.006,2.457 M7.143,2.143c-0.714,1.07-2.137,1.084-2.137,1.084S3.571,3.215,2.857,2.143
	c-1.692,0.498-2.143,1.427-2.143,2.5c0,1.784,1.428,2.5,1.428,2.5v0.715h5.715V7.143c0,0,1.427-0.715,1.427-2.5
	C9.285,3.57,8.834,2.641,7.143,2.143"/>
<linearGradient id="SVGID_1_" gradientUnits="userSpaceOnUse" x1="-3.4004" y1="-3.1226" x2="-3.4004" y2="0.6317" gradientTransform="matrix(1 0 0 -1 8.3999 4.0996)">
	<stop  offset="0" style="stop-color:#959595"/>
	<stop  offset="1" style="stop-color:#B8B8B8"/>
</linearGradient>
<linearGradient id="SVGID_2_" gradientUnits="userSpaceOnUse" x1="-7.3418" y1="-0.9849" x2="0.541" y2="-0.9849" gradientTransform="matrix(1 0 0 -1 8.3999 4.0996)">
	<stop  offset="0" style="stop-color:#ACACAC"/>
	<stop  offset="1" style="stop-color:#BCBCBC"/>
</linearGradient>
<path fill="url(#SVGID_1_)" stroke="url(#SVGID_2_)" stroke-width="0.75" stroke-miterlimit="10" d="M1.434,4.631
	c0.022,1.204,1.786,2.51,1.786,2.51h1.071c0,0,0-2.967,0-3.569c-0.714,0-1.451-0.513-1.451-0.513S1.412,3.427,1.434,4.631
	 M7.147,3.059c0,0-0.357,0.512-1.427,0.512c0,0.604,0,3.569,0,3.569h1.07c0,0,1.752-1.294,1.775-2.498
	C8.588,3.438,7.147,3.059,7.147,3.059"/>
<path fill="none" stroke="#8E8E8E" stroke-width="0.75" stroke-miterlimit="10" d="M1.434,4.631c0.022,1.204,1.786,2.51,1.786,2.51
	h1.071c0,0,0-2.967,0-3.569c-0.714,0-1.451-0.513-1.451-0.513S1.412,3.427,1.434,4.631z M7.147,3.059c0,0-0.357,0.512-1.427,0.512
	c0,0.604,0,3.569,0,3.569h1.07c0,0,1.752-1.294,1.775-2.498C8.588,3.438,7.147,3.059,7.147,3.059z"/>
</svg>
