<?xml version="1.0" encoding="utf-8"?>
<!-- Generator: Adobe Illustrator 16.0.0, SVG Export Plug-In . SVG Version: 6.00 Build 0)  -->
<!DOCTYPE svg PUBLIC "-//W3C//DTD SVG 1.1//EN" "http://www.w3.org/Graphics/SVG/1.1/DTD/svg11.dtd">
<svg version="1.1" id="图层_1" xmlns="http://www.w3.org/2000/svg" xmlns:xlink="http://www.w3.org/1999/xlink" x="0px" y="0px"
	 width="10px" height="10px" viewBox="0 0 10 10" enable-background="new 0 0 10 10" xml:space="preserve">
<path fill="#929292" d="M9.771,4.195c-0.217-0.35-0.579-0.552-0.959-0.583L6.246,3.607c0.207-0.5,0.325-1.045,0.325-1.621
	C6.566,1.816,6.556,1.651,6.539,1.49c0,0-0.084-1.27-1.179-1.27c-0.636,0-1.152,0.519-1.152,1.159c0,0.09-0.003,0.137-0.003,0.13
	c0,1.284-0.985,2.325-2.238,2.442H0.395c0,0-0.001,0.001-0.002,0.001H0.372c0.003,0,0.007,0.001,0.011,0.002
	C0.289,3.957,0.206,3.996,0.145,4.059C0.083,4.12,0.043,4.205,0.043,4.298v5.134c0,0.097,0.045,0.183,0.113,0.245
	c0.055,0.06,0.13,0.098,0.216,0.102H0.372h0.001c0.003,0,0.006,0.001,0.008,0.001h7.698c-0.107,0,0.286-0.03,0.53-0.183
	C8.931,9.39,9.117,9.057,9.156,8.705c0-0.005,0.005,0.014,0.006,0.009l0.794-3.82C9.964,4.655,9.904,4.413,9.771,4.195 M1.76,9.096
	H0.734V4.638H1.76V9.096 M8.544,8.502c0.01-0.033,0.007-0.029-0.01,0.056L8.544,8.502C8.523,8.583,8.428,8.928,8.298,9.011
	C8.141,9.109,8.042,9.094,8.042,9.094h-5.6V4.521c1.073-0.317,1.96-1.195,2.291-2.17c0.001,0,0.001,0,0,0.001
	c0.041-0.116,0.072-0.229,0.079-0.32c0.035-0.392,0.062-0.719,0.062-0.719s0.03-0.444,0.467-0.444c0.249,0,0.458,0.176,0.499,0.444
	c0.017,0.03,0.037,0.175,0.035,0.65c-0.028,0.509-0.11,0.884-0.155,1.025C5.652,3.24,5.563,3.429,5.445,3.656
	c0,0-0.087,0.114-0.087,0.294c0,0.19,0.148,0.343,0.33,0.343L8.81,4.312c0.163-0.001,0.322,0.072,0.417,0.221
	c0.057,0.091,0.071,0.194,0.063,0.293L8.544,8.502"/>
</svg>
