<?xml version="1.0" encoding="utf-8"?>
<!-- Generator: Adobe Illustrator 16.0.0, SVG Export Plug-In . SVG Version: 6.00 Build 0)  -->
<!DOCTYPE svg PUBLIC "-//W3C//DTD SVG 1.1//EN" "http://www.w3.org/Graphics/SVG/1.1/DTD/svg11.dtd">
<svg version="1.1" id="图层_1" xmlns="http://www.w3.org/2000/svg" xmlns:xlink="http://www.w3.org/1999/xlink" x="0px" y="0px"
	 width="10px" height="10px" viewBox="0 0 10 10" enable-background="new 0 0 10 10" xml:space="preserve">
<g enable-background="new    ">
	<path fill="#E04023" d="M9.769,4.196c-0.217-0.35-0.579-0.552-0.96-0.584L6.245,3.608c0.206-0.5,0.323-1.046,0.323-1.621
		c-0.004-0.17-0.013-0.336-0.029-0.497c0,0-0.084-1.27-1.179-1.27c-0.637,0-1.153,0.519-1.153,1.159c0,0.09-0.002,0.137-0.002,0.131
		c0,1.283-0.984,2.323-2.238,2.441H0.395c-0.001,0-0.001,0.001-0.002,0.001H0.371c0.003,0,0.008,0.001,0.012,0.001
		C0.288,3.957,0.206,3.996,0.146,4.059c-0.063,0.062-0.103,0.146-0.103,0.24v5.132c0,0.098,0.044,0.184,0.113,0.246
		c0.055,0.06,0.131,0.097,0.216,0.101l0,0h0.001c0.003,0,0.006,0.001,0.009,0.001H8.08c-0.107,0,0.287-0.03,0.53-0.184
		c0.321-0.205,0.507-0.538,0.546-0.89c0-0.006,0.005,0.013,0.006,0.007l0.793-3.818C9.964,4.657,9.904,4.413,9.769,4.196
		 M1.761,9.095H0.735V4.637h1.025V9.095 M8.545,8.502c0.009-0.033,0.006-0.027-0.011,0.056L8.545,8.502
		c-0.021,0.082-0.116,0.427-0.247,0.51c-0.157,0.1-0.256,0.083-0.256,0.083H2.445V4.521c1.073-0.317,1.958-1.194,2.29-2.17
		c0,0,0,0,0.002,0.001c0.041-0.116,0.072-0.229,0.08-0.32c0.034-0.392,0.06-0.719,0.06-0.719s0.031-0.444,0.468-0.444
		c0.248,0,0.458,0.178,0.498,0.444c0.018,0.03,0.037,0.176,0.034,0.65c-0.027,0.51-0.108,0.884-0.156,1.025
		C5.656,3.241,5.565,3.43,5.448,3.657c0,0-0.087,0.114-0.087,0.293c0,0.19,0.149,0.344,0.331,0.344l3.12,0.018
		c0.163-0.001,0.323,0.071,0.415,0.221C9.282,4.624,9.297,4.727,9.29,4.826L8.543,8.502"/>
</g>
<g enable-background="new    ">
	<path fill="#FFD7A5" d="M0.736,9.083h1.022V4.639H0.736V9.083 M8.512,8.549c0.018-0.084,0.02-0.09,0.012-0.057L8.512,8.549
		 M9.204,4.534C9.111,4.386,8.952,4.313,8.79,4.314L5.678,4.296c-0.181,0-0.33-0.153-0.33-0.341c0-0.179,0.086-0.293,0.086-0.293
		c0.118-0.226,0.207-0.416,0.273-0.667c0.046-0.14,0.127-0.514,0.156-1.021C5.868,1.5,5.847,1.354,5.83,1.323
		C5.789,1.057,5.58,0.88,5.333,0.88c-0.436,0-0.466,0.443-0.466,0.443S4.84,1.65,4.805,2.041C4.798,2.131,4.767,2.245,4.726,2.36
		c-0.001,0-0.001,0-0.001,0C4.394,3.333,3.51,4.208,2.441,4.524v4.56h5.581c0,0,0.099,0.017,0.255-0.082
		C8.406,8.92,8.501,8.576,8.524,8.495l0.742-3.667C9.274,4.728,9.26,4.626,9.204,4.534"/>
	<path fill="#F48700" d="M0.736,4.639h1.022v4.445H0.736V4.639z"/>
</g>
</svg>
